<svg width="24" height="19.7" fill="currentColor" class="c-media__svg" viewBox="0 0 24 19.7" xmlns="http://www.w3.org/2000/svg"><path d="m23.2 8.6h-6.9l-1.7-3.8c.2-.3.3-.7.1-1.1l-1.4-3.1c-.2-.4-.6-.6-1-.7-.1 0-.7 0-.8 0-.4 0-.8.3-1 .7l-1.4 3.1c-.2.4-.1.8.1 1.1l-1.7 3.8h-6.7c-.4 0-.8.3-.8.8s.3.8.8.8h.3l3.2 9.1s.2.5.9.5h12.9s1 0 1.3-.6c.2-.6 3.1-7.7 3.6-9h.3c.4 0 .8-.3.8-.8s-.3-.8-.8-.8zm-12.9-3.3c.4 0 .7-.3.9-.6l.8-1.7.8 1.7c.2.4.5.6.9.6l1.5 3.3h-6.3l1.5-3.3zm-7.5 4.8h4l.3 2h-3.5l-.7-2zm1.1 3.1h3.3l.3 1.9h-2.9zm1.8 5.1-.8-2.1h2.7l.3 2.1zm5.8 0h-2.4l-.3-2.1h2.7zm0-3.2h-2.9l-.3-1.9h3.2zm0-3h-3.3l-.3-2h3.7v2zm3.5 6.2h-2.4v-2.1h2.7zm.5-3.2h-2.9v-1.9h3.2zm-2.9-3v-2h3.7l-.3 2h-3.3zm5.3 6.2h-1.9l.3-2.1h2.4zm1.3-3.2h-2.7l.3-1.9h3.1l-.8 1.9zm1.2-3h-3.4l.3-2h3.9z"/></svg>
