<?xml version="1.0" encoding="UTF-8"?>
<svg id="Layer_1" xmlns="http://www.w3.org/2000/svg" version="1.1" viewBox="0 0 72 72">
  <!-- Generator: Adobe Illustrator 29.6.1, SVG Export Plug-In . SVG Version: 2.1.1 Build 9)  -->
  <defs>
    <style>
      .st0 {
        fill-rule: evenodd;
      }
    </style>
  </defs>
  <path class="st0" d="M70,24.3C65.2,10.2,51.7,0,36,0s-5.1.3-7.5.8c-1.5.3-2.9.7-4.3,1.2l.5,1.7c.9,2.7,1.8,5.6,2.8,8.4.6,1.7,1.2,3.3,1.7,4.9,1.9,5.1,3.9,9.9,6.1,13.5,1,1.6,2,2.9,3,4,1.5,1.5,3.1,2.4,4.7,2.4,2.4,0,4.7-1.9,6.8-4.9,1.8,3.6,3.6,8.3,5.2,12.8-3.4,2.9-7.3,4.6-12,4.6h0c-3.6,0-6.7-1-9.5-2.8-1.3-.8-2.6-1.8-3.7-2.9-3.3-3.3-6.1-7.7-8.5-12.8-.9-1.8-1.7-3.7-2.4-5.6-2.2-5.4-4.1-11.2-6-17-1.3,1.1-2.5,2.2-3.6,3.4C3.4,18.3,0,27,0,36,0,44.2,2.7,51.7,7.4,57.8c1,1.4,2.2,2.7,3.4,3.9,1.3-3.7,2.5-7.5,3.7-11,1.5-4.8,3.1-9.6,4.8-14.1,2.6,4.8,5.5,8.9,9.1,11.9-.7,2.1-1.3,4.1-2,6.1-1.6,4.9-3.2,9.8-4.9,14.4,1.4.6,2.8,1.1,4.2,1.6,3.3,1,6.8,1.5,10.3,1.5,9.7,0,18.5-3.8,24.9-10.1,1.2-1.2,2.4-2.5,3.4-3.8-.4-1.2-.8-2.4-1.2-3.7-.9-2.8-1.8-5.6-2.8-8.4-.6-1.6-1.1-3.3-1.7-4.9-1.9-5.1-3.9-9.9-6.1-13.5-1-1.6-2-2.9-3-4-.4-.4-.7-.7-1.1-1-1.2-.9-2.3-1.4-3.6-1.4-2.4,0-4.7,1.9-6.8,4.9-1.8-3.6-3.6-8.3-5.2-12.8.4-.4.9-.7,1.3-1,3.1-2.3,6.6-3.6,10.7-3.6h0c3.6,0,6.7,1,9.5,2.8,1.3.8,2.6,1.8,3.7,2.9,3.3,3.3,6.1,7.7,8.5,12.9.9,1.8,1.7,3.7,2.4,5.6,1,2.5,1.9,5,2.8,7.6.2-1.5.3-2.9.3-4.5,0-4.1-.7-8-2-11.7Z"/>
</svg>